<?xml version="1.0" standalone="no"?>
<!DOCTYPE svg PUBLIC "-//W3C//DTD SVG 20010904//EN"
 "http://www.w3.org/TR/2001/REC-SVG-20010904/DTD/svg10.dtd">
<svg version="1.0" xmlns="http://www.w3.org/2000/svg"
 width="70.000000pt" height="70.000000pt" viewBox="0 0 70.000000 70.000000"
 preserveAspectRatio="xMidYMid meet">
<metadata>
Created by potrace 1.14, written by Peter Selinger 2001-2017
</metadata>
<g transform="translate(0.000000,70.000000) scale(0.100000,-0.100000)"
fill="#000000" stroke="none">
<path d="M252 393 c2 -88 6 -108 18 -108 11 0 16 13 18 48 2 33 7 47 18 47 8
0 14 -10 14 -24 0 -25 35 -60 71 -71 14 -5 19 -14 17 -28 -2 -18 -9 -22 -41
-21 -30 1 -37 -2 -35 -15 2 -11 16 -17 42 -19 49 -4 78 20 74 62 -2 25 -11 35
-43 52 -55 28 -56 60 -2 57 26 -2 37 2 37 11 0 20 -23 26 -91 26 -59 0 -59 0
-59 30 0 29 2 30 45 30 33 0 45 4 45 15 0 12 -14 15 -65 15 l-66 0 3 -107z"/>
</g>
</svg>
