<svg width="50" height="94" viewBox="0 0 50 94" fill="none" xmlns="http://www.w3.org/2000/svg">
<path d="M8.91 74C7.898 74 7.018 73.626 6.27 72.878C5.566 72.13 5.214 71.25 5.214 70.238V29.582C5.214 28.57 5.566 27.69 6.27 26.942C7.018 26.194 7.898 25.82 8.91 25.82H30.69C31.702 25.82 32.582 26.194 33.33 26.942C34.078 27.69 34.452 28.57 34.452 29.582C34.452 30.594 34.078 31.474 33.33 32.222C32.582 32.926 31.702 33.278 30.69 33.278H14.982C14.63 33.278 14.454 33.476 14.454 33.872V45.422C14.454 45.774 14.63 45.95 14.982 45.95H29.568C30.536 45.95 31.372 46.302 32.076 47.006C32.78 47.666 33.132 48.502 33.132 49.514C33.132 50.526 32.78 51.384 32.076 52.088C31.372 52.748 30.536 53.078 29.568 53.078H14.982C14.63 53.078 14.454 53.254 14.454 53.606V70.238C14.454 71.25 14.08 72.13 13.332 72.878C12.584 73.626 11.704 74 10.692 74H8.91Z" fill="#11B7C5"/>
<path d="M33.984 73.288C28.864 71.5813 25.152 69.512 22.848 67.08C20.5867 64.648 19.456 61.704 19.456 58.248C19.456 54.3653 20.7573 51.2933 23.36 49.032C25.9627 46.7707 29.6107 45.64 34.304 45.64C38.272 45.64 41.728 46.088 44.672 46.984C45.696 47.2827 46.5067 47.9013 47.104 48.84C47.744 49.736 48.064 50.7387 48.064 51.848V52.424C48.064 53.2347 47.7013 53.8747 46.976 54.344C46.2507 54.7707 45.504 54.8347 44.736 54.536C41.536 53.2987 38.272 52.68 34.944 52.68C32.8107 52.68 31.1893 53.1707 30.08 54.152C28.9707 55.1333 28.416 56.4987 28.416 58.248C28.416 61.32 30.4213 63.5173 34.432 64.84C40.192 66.6747 44.1813 68.7653 46.4 71.112C48.6613 73.4587 49.792 76.488 49.792 80.2C49.792 89.16 44.2667 93.64 33.216 93.64C29.76 93.64 26.624 93.1067 23.808 92.04C22.784 91.656 21.9733 90.9947 21.376 90.056C20.8213 89.1173 20.544 88.072 20.544 86.92V86.152C20.544 85.3413 20.8853 84.7653 21.568 84.424C22.2507 84.04 22.9547 84.0187 23.68 84.36C26.496 85.768 29.4613 86.472 32.576 86.472C37.9947 86.472 40.704 84.424 40.704 80.328C40.704 78.664 40.192 77.2987 39.168 76.232C38.144 75.1227 36.416 74.1413 33.984 73.288Z" fill="#11B7C5"/>
</svg>
