<svg width="183" height="40" viewBox="0 0 183 40" fill="none" xmlns="http://www.w3.org/2000/svg">
<path d="M22.543 23.8926H7.91797V39H0.300781V2.03125H24.3711V8.20117H7.91797V17.748H22.543V23.8926ZM26.6055 25.0098C26.6055 22.2845 27.1302 19.8555 28.1797 17.7227C29.2292 15.5898 30.7357 13.9395 32.6992 12.7715C34.6797 11.6035 36.9733 11.0195 39.5801 11.0195C43.2871 11.0195 46.3086 12.1536 48.6445 14.4219C50.9974 16.6901 52.3092 19.7708 52.5801 23.6641L52.6309 25.543C52.6309 29.7578 51.4544 33.1432 49.1016 35.6992C46.7487 38.2383 43.5918 39.5078 39.6309 39.5078C35.6699 39.5078 32.5046 38.2383 30.1348 35.6992C27.7819 33.1602 26.6055 29.707 26.6055 25.3398V25.0098ZM33.9434 25.543C33.9434 28.1497 34.4342 30.1471 35.416 31.5352C36.3978 32.9062 37.8027 33.5918 39.6309 33.5918C41.4082 33.5918 42.7962 32.9147 43.7949 31.5605C44.7936 30.1895 45.293 28.0059 45.293 25.0098C45.293 22.4538 44.7936 20.4733 43.7949 19.0684C42.7962 17.6634 41.3913 16.9609 39.5801 16.9609C37.7858 16.9609 36.3978 17.6634 35.416 19.0684C34.4342 20.4564 33.9434 22.6146 33.9434 25.543ZM64.8945 39H57.5312V0H64.8945V39ZM78.707 39H71.3438V11.5273H78.707V39ZM70.9121 4.41797C70.9121 3.31771 71.276 2.41211 72.0039 1.70117C72.7487 0.990234 73.7559 0.634766 75.0254 0.634766C76.278 0.634766 77.2767 0.990234 78.0215 1.70117C78.7663 2.41211 79.1387 3.31771 79.1387 4.41797C79.1387 5.53516 78.7578 6.44922 77.9961 7.16016C77.2513 7.87109 76.2611 8.22656 75.0254 8.22656C73.7897 8.22656 72.791 7.87109 72.0293 7.16016C71.2845 6.44922 70.9121 5.53516 70.9121 4.41797ZM83.6328 25.0098C83.6328 22.2845 84.1576 19.8555 85.207 17.7227C86.2565 15.5898 87.763 13.9395 89.7266 12.7715C91.707 11.6035 94.0007 11.0195 96.6074 11.0195C100.314 11.0195 103.336 12.1536 105.672 14.4219C108.025 16.6901 109.337 19.7708 109.607 23.6641L109.658 25.543C109.658 29.7578 108.482 33.1432 106.129 35.6992C103.776 38.2383 100.619 39.5078 96.6582 39.5078C92.6973 39.5078 89.5319 38.2383 87.1621 35.6992C84.8092 33.1602 83.6328 29.707 83.6328 25.3398V25.0098ZM90.9707 25.543C90.9707 28.1497 91.4616 30.1471 92.4434 31.5352C93.4251 32.9062 94.8301 33.5918 96.6582 33.5918C98.4355 33.5918 99.8236 32.9147 100.822 31.5605C101.821 30.1895 102.32 28.0059 102.32 25.0098C102.32 22.4538 101.821 20.4733 100.822 19.0684C99.8236 17.6634 98.4186 16.9609 96.6074 16.9609C94.8132 16.9609 93.4251 17.6634 92.4434 19.0684C91.4616 20.4564 90.9707 22.6146 90.9707 25.543ZM129.057 31.4082C129.057 30.5111 128.608 29.8086 127.711 29.3008C126.831 28.776 125.409 28.3105 123.445 27.9043C116.911 26.5332 113.645 23.7572 113.645 19.5762C113.645 17.1387 114.652 15.1074 116.666 13.4824C118.697 11.8405 121.346 11.0195 124.613 11.0195C128.1 11.0195 130.885 11.8405 132.967 13.4824C135.066 15.1243 136.115 17.2572 136.115 19.8809H128.777C128.777 18.8314 128.439 17.9681 127.762 17.291C127.085 16.597 126.027 16.25 124.588 16.25C123.352 16.25 122.396 16.5293 121.719 17.0879C121.042 17.6465 120.703 18.3574 120.703 19.2207C120.703 20.0332 121.084 20.6934 121.846 21.2012C122.624 21.6921 123.928 22.1237 125.756 22.4961C127.584 22.8516 129.124 23.2578 130.377 23.7148C134.253 25.1367 136.191 27.5996 136.191 31.1035C136.191 33.6087 135.117 35.64 132.967 37.1973C130.817 38.7376 128.041 39.5078 124.639 39.5078C122.337 39.5078 120.288 39.1016 118.494 38.2891C116.717 37.4596 115.32 36.334 114.305 34.9121C113.289 33.4733 112.781 31.9245 112.781 30.2656H119.738C119.806 31.569 120.288 32.5677 121.186 33.2617C122.083 33.9557 123.285 34.3027 124.791 34.3027C126.196 34.3027 127.254 34.0404 127.965 33.5156C128.693 32.974 129.057 32.2715 129.057 31.4082ZM153.584 39.5078C149.555 39.5078 146.271 38.2721 143.732 35.8008C141.21 33.3294 139.949 30.0371 139.949 25.9238V25.2129C139.949 22.4538 140.482 19.9909 141.549 17.8242C142.615 15.6406 144.122 13.9648 146.068 12.7969C148.032 11.612 150.266 11.0195 152.771 11.0195C156.529 11.0195 159.483 12.2044 161.633 14.5742C163.799 16.944 164.883 20.304 164.883 24.6543V27.6504H147.389C147.626 29.4447 148.337 30.8835 149.521 31.9668C150.723 33.0501 152.238 33.5918 154.066 33.5918C156.893 33.5918 159.102 32.5677 160.693 30.5195L164.299 34.5566C163.199 36.1139 161.709 37.3327 159.83 38.2129C157.951 39.0762 155.869 39.5078 153.584 39.5078ZM152.746 16.9609C151.29 16.9609 150.105 17.4518 149.191 18.4336C148.294 19.4154 147.719 20.8203 147.465 22.6484H157.672V22.0645C157.638 20.4395 157.198 19.1868 156.352 18.3066C155.505 17.4095 154.303 16.9609 152.746 16.9609ZM177.857 4.77344V11.5273H182.555V16.9102H177.857V30.6211C177.857 31.6367 178.052 32.3646 178.441 32.8047C178.831 33.2448 179.576 33.4648 180.676 33.4648C181.488 33.4648 182.208 33.4056 182.834 33.2871V38.8477C181.395 39.2878 179.914 39.5078 178.391 39.5078C173.245 39.5078 170.621 36.9095 170.52 31.7129V16.9102H166.508V11.5273H170.52V4.77344H177.857Z" fill="#00BFA6"/>
</svg>
